<svg width="139" height="66" viewBox="0 0 139 66" fill="none" xmlns="http://www.w3.org/2000/svg">
<path d="M47.4753 35.5141C49.2837 35.5141 51.0521 35.5141 52.8846 35.5141C52.8846 36.243 52.8846 36.9639 52.8846 37.829C54.8691 35.49 57.3337 34.7772 60.1343 35.0575C62.935 35.3379 65.2476 36.4673 66.7039 39.0224C67.128 38.4778 67.4801 37.9491 67.9042 37.4925C70.6649 34.5288 75.0339 34.4167 78.1226 35.9466C81.0193 37.3804 82.3477 39.9035 82.4597 42.9954C82.6037 46.8081 82.5237 50.6369 82.5317 54.4576C82.5317 55.1705 82.5317 55.8834 82.5317 56.6363C80.7153 56.6363 78.9388 56.6363 77.1064 56.6363C77.1064 56.388 77.1064 56.1558 77.1064 55.9235C77.1064 52.303 77.1224 48.6825 77.0904 45.0619C77.0824 44.285 76.9864 43.484 76.7703 42.7391C76.2502 40.9528 75.0099 39.9516 73.1535 39.8074C72.4333 39.7513 71.6811 39.7834 70.9769 39.9356C69.2085 40.3201 68.0082 41.8259 67.8002 43.8124C67.7442 44.317 67.7201 44.8297 67.7201 45.3423C67.7121 48.8747 67.7201 52.3991 67.7201 55.9315C67.7201 56.1477 67.7201 56.372 67.7201 56.6283C65.9117 56.6283 64.1353 56.6283 62.2948 56.6283C62.2948 56.396 62.2948 56.1798 62.2948 55.9715C62.2948 52.367 62.3028 48.7706 62.2868 45.1661C62.2868 44.6054 62.2468 44.0287 62.1428 43.476C61.6227 40.6805 59.5342 39.4229 56.7815 39.8395C54.2849 40.2159 52.8926 41.9461 52.8846 44.5493C52.8766 48.3701 52.8846 52.1908 52.8846 56.0116C52.8846 56.2118 52.8846 56.4041 52.8846 56.6363C51.0601 56.6363 49.2837 56.6363 47.4593 56.6363C47.4753 49.6116 47.4753 42.5869 47.4753 35.5141Z" fill="#1B3163"/>
<path d="M63.9912 20.6475C61.1025 18.9414 61.0625 14.3116 64.4633 12.3893C63.5351 11.364 62.8949 10.1865 62.6789 8.81681C62.0707 5.07616 63.9512 1.88819 67.528 0.61461C69.6325 -0.130317 71.7771 -0.162356 73.9456 0.326251C74.3697 0.422371 74.8098 0.486451 75.2339 0.486451C77.5144 0.502471 79.795 0.494461 82.1235 0.494461C82.1235 1.87217 82.1235 3.22586 82.1235 4.63561C81.2033 4.63561 80.2751 4.63561 79.2749 4.63561C79.3389 4.89994 79.3629 5.1082 79.4429 5.30044C80.7152 8.67263 79.1708 12.5094 75.554 14.1835C73.0254 15.3529 70.4247 15.4891 67.7921 14.4638C67.6161 14.3998 67.32 14.4398 67.168 14.56C66.3278 15.1927 66.3758 16.6265 67.32 17.1231C67.8801 17.4195 68.5603 17.5717 69.1924 17.6037C71.1449 17.6919 73.1054 17.6118 75.0498 17.7559C76.1221 17.836 77.2184 18.1084 78.2186 18.5169C80.5312 19.454 81.4594 21.3925 81.6034 23.7714C81.7955 26.9273 80.0911 29.3704 76.8743 30.652C74.5537 31.5731 72.1532 31.7013 69.7126 31.509C68.2162 31.3889 66.7439 31.1406 65.3515 30.5559C63.4551 29.7629 61.9987 28.5373 61.6066 26.3987C61.1905 24.1158 61.7827 22.2015 63.7831 20.8478C63.8552 20.7757 63.9192 20.7116 63.9912 20.6475ZM71.641 22.0653C71.641 22.0893 71.633 22.1214 71.633 22.1454C71.1049 22.1454 70.5688 22.1053 70.0486 22.1534C69.3685 22.2175 68.6643 22.2816 68.0162 22.4898C67.0799 22.7862 66.5678 23.4911 66.5118 24.4923C66.4558 25.4695 66.9199 26.1904 67.7921 26.5188C68.6483 26.8392 69.5605 27.0875 70.4727 27.1997C72.1532 27.3999 73.8255 27.2958 75.3779 26.4868C75.9381 26.1984 76.3462 25.7819 76.5062 25.1571C76.8343 23.8435 76.1461 22.642 74.7458 22.3617C73.7215 22.1534 72.6733 22.1534 71.641 22.0653ZM71.2009 4.32322C71.0889 4.32322 70.9849 4.32322 70.8728 4.32322C69.1844 4.34725 67.7361 5.5888 67.6001 7.12671C67.432 9.0491 68.3922 10.3868 70.2407 10.7392C70.6968 10.8273 71.1849 10.8273 71.657 10.8033C73.8896 10.6831 75.3539 8.6486 74.7218 6.59805C74.2817 5.21233 72.9053 4.32322 71.2009 4.32322Z" fill="#D5B584"/>
<path d="M91.4857 54.0091C91.4857 57.99 91.4857 61.979 91.4857 66C89.6453 66 87.8609 66 86.0444 66C86.0444 55.8434 86.0444 45.7027 86.0444 35.5301C87.8289 35.5301 89.6053 35.5301 91.4377 35.5301C91.4377 36.4192 91.4377 37.2923 91.4377 38.1974C91.5418 38.1654 91.5978 38.1734 91.6298 38.1413C96.655 32.8307 104.809 34.3046 107.41 41.105C109.122 45.5746 108.706 49.932 105.737 53.8088C103.793 56.356 101.072 57.3092 97.9113 57.165C95.4067 57.0529 93.4142 55.9555 91.7498 54.1452C91.7018 54.0892 91.6458 54.0411 91.5978 53.9931C91.5898 53.9851 91.5658 53.9931 91.4857 54.0091ZM91.4457 46.2955C91.4777 46.5758 91.5097 47.0885 91.6058 47.5931C91.6778 47.9856 91.7978 48.3701 91.9419 48.7465C93.5182 52.7836 98.5434 53.6887 101.256 50.4046C102.632 48.7385 102.968 46.7921 102.688 44.6855C102.128 40.5283 97.4472 38.3816 93.9983 40.7606C92.1579 42.0262 91.4697 43.9005 91.4457 46.2955Z" fill="#1B3163"/>
<path d="M122.302 52.1027C122.302 53.6246 122.302 55.1145 122.302 56.6764C120.173 56.5803 118.052 56.9167 115.98 56.2599C113.667 55.531 112.291 53.7127 112.107 51.1495C112.067 50.6209 112.051 50.0922 112.051 49.5636C112.051 38.5018 112.051 27.44 112.051 16.3703C112.051 16.138 112.051 15.9057 112.051 15.6253C111.139 15.6253 110.283 15.6253 109.386 15.6253C109.386 14.0794 109.386 12.5816 109.386 11.0116C110.251 11.0116 111.123 11.0116 112.051 11.0116C112.051 10.7152 112.051 10.483 112.051 10.2507C112.067 8.44041 112.003 6.62215 112.123 4.81991C112.299 2.17662 114.916 -0.0821901 117.532 0.0780092C117.532 3.6905 117.532 7.31902 117.532 10.9956C119.157 10.9956 120.701 10.9956 122.294 10.9956C122.294 12.5495 122.294 14.0554 122.294 15.6173C120.717 15.6173 119.157 15.6173 117.54 15.6173C117.54 15.8977 117.54 16.1059 117.54 16.3222C117.54 27.4561 117.54 38.5979 117.54 49.7318C117.54 49.8439 117.54 49.948 117.54 50.0602C117.572 51.3818 118.157 51.9906 119.493 52.0467C120.277 52.0787 121.061 52.0547 121.845 52.0627C121.989 52.0707 122.133 52.0867 122.302 52.1027Z" fill="#D5B584"/>
<path d="M104.249 15.0887C104.161 15.345 104.097 15.5532 104.017 15.7535C102.368 19.9026 98.6314 22.3136 94.0303 22.2095C87.6128 22.0653 83.3398 17.4676 83.4518 10.8754C83.4998 8.22412 84.148 5.77307 85.8684 3.69849C87.9569 1.19137 90.7095 0.0859934 93.9183 0.0219137C97.6472 -0.0581859 100.752 1.2154 102.952 4.33127C104.345 6.29371 104.849 8.5365 104.777 10.9155C104.761 11.5162 104.697 12.1089 104.657 12.7497C99.4076 12.7497 94.2224 12.7497 89.0451 12.7497C89.0211 14.6401 90.2934 17.1873 93.1341 17.6038C94.9986 17.8761 96.735 17.5717 97.8553 15.9057C98.3354 15.1928 98.8155 15.0406 99.5757 15.0726C101.104 15.1207 102.64 15.0887 104.249 15.0887ZM99.1276 9.02511C99.1516 6.22163 96.5109 4.37933 93.7503 4.5155C91.3177 4.63565 89.0611 6.70222 89.0851 9.02511C92.43 9.02511 95.7587 9.02511 99.1276 9.02511Z" fill="#D5B584"/>
<path d="M28.8309 47.7133C28.8549 49.9961 30.3753 52.2549 32.9999 52.5913C35.1364 52.8637 36.9529 52.327 38.0732 50.2925C38.1292 50.1884 38.2812 50.0842 38.3932 50.0842C40.2577 50.0682 42.1141 50.0762 44.0426 50.0762C43.3784 52.0627 42.2982 53.6967 40.7138 54.9783C38.6893 56.6204 36.3287 57.2291 33.7681 57.181C29.031 57.0849 25.3821 54.5378 23.9178 50.2684C22.9575 47.465 22.9815 44.6214 23.9097 41.8179C24.5179 39.9676 25.6062 38.4297 27.1425 37.2202C29.5351 35.3459 32.2798 34.7932 35.2405 35.0495C38.3612 35.3219 40.8898 36.6836 42.7143 39.2547C44.0906 41.1852 44.6107 43.3799 44.5787 45.7268C44.5707 46.2555 44.4907 46.7841 44.4747 47.3048C44.4667 47.6172 44.3306 47.7293 44.0346 47.7133C43.8505 47.7053 43.6665 47.7133 43.4904 47.7133C38.8333 47.7133 34.1762 47.7133 29.5191 47.7133C29.303 47.7133 29.087 47.7133 28.8309 47.7133ZM38.8733 44.0287C39.0734 41.6658 36.9129 39.6312 34.1042 39.5031C31.2795 39.3749 28.8869 41.4335 28.8789 44.0287C32.2077 44.0287 35.5445 44.0287 38.8733 44.0287Z" fill="#1B3163"/>
<path d="M124.91 53.6246C124.91 51.6301 126.43 50.0842 128.375 50.0842C130.455 50.0842 132.024 51.6301 132 53.6486C131.976 55.6271 130.399 57.197 128.431 57.189C126.462 57.181 124.91 55.6031 124.91 53.6246Z" fill="#1B3163"/>
<path d="M6.10352e-05 46.8321C6.10352e-05 50.1002 6.10352e-05 53.3602 6.10352e-05 56.6283H5.44137C5.44137 56.388 5.44137 56.1878 5.44137 55.9875C5.44137 52.6634 5.44137 49.3312 5.44937 46.0071C5.44937 45.8149 5.45737 45.5746 5.5614 45.4464C6.46561 44.3971 7.39384 43.3638 8.33806 42.2985C8.46609 42.4987 8.57012 42.6429 8.65814 42.7951C11.3628 47.2807 14.0674 51.7583 16.7561 56.2518C16.9321 56.5482 17.1162 56.6844 17.4843 56.6764C19.3087 56.6523 21.1331 56.6684 22.9656 56.6684C23.1176 56.6684 23.2616 56.6443 23.4617 56.6283C23.3577 56.4521 23.2937 56.3399 23.2216 56.2358C19.8128 50.765 15.2357 44.341 11.6829 38.7661C12.7151 37.7969 13.7474 36.8197 14.7716 35.8505C16.2039 34.4968 17.6443 33.1511 19.0766 31.8054C20.573 30.3957 22.0614 28.9859 23.5577 27.5762C25.1261 26.0943 26.7025 24.6205 28.2708 23.1386C28.4629 22.9544 28.5589 22.7382 28.5189 22.4578C28.4869 22.3697 28.4629 22.2656 28.4149 22.1855C28.1748 21.793 27.6787 21.7129 27.3026 22.0012C26.6465 22.4979 25.9903 23.0025 25.3421 23.5071C23.8858 24.6285 22.4294 25.7579 20.9731 26.8793C19.2127 28.241 17.4442 29.5947 15.6838 30.9564C14.2355 32.0698 12.7871 33.1912 11.3388 34.3045C9.36231 35.8264 7.39384 37.3403 5.41736 38.8622V26.8473H6.10352e-05C6.10352e-05 31.5491 6.10352e-05 36.251 6.10352e-05 40.9448V46.8321ZM5.42536 42.6189C5.42536 42.0422 5.42536 41.4014 5.42536 40.7365C5.64942 40.5683 5.86547 40.3921 6.08952 40.2239C7.78593 38.9183 9.48234 37.6127 11.1787 36.307C12.323 35.4259 13.4673 34.5448 14.6036 33.6637C15.0517 33.3193 15.5078 32.9749 15.9559 32.6224C15.9639 32.6305 15.9799 32.6465 15.9879 32.6545C12.4671 35.9786 8.95421 39.2947 5.42536 42.6189Z" fill="#1B3163"/>
</svg>
