<svg width="139" height="66" viewBox="0 0 139 66" fill="none" xmlns="http://www.w3.org/2000/svg">
<path d="M47.4754 35.5141C49.2838 35.5141 51.0522 35.5141 52.8846 35.5141C52.8846 36.243 52.8846 36.9639 52.8846 37.829C54.8691 35.49 57.3337 34.7772 60.1344 35.0575C62.9351 35.3379 65.2476 36.4673 66.704 39.0224C67.1281 38.4778 67.4802 37.9491 67.9043 37.4925C70.6649 34.5288 75.034 34.4167 78.1227 35.9466C81.0194 37.3804 82.3477 39.9035 82.4597 42.9954C82.6038 46.8081 82.5238 50.6369 82.5318 54.4576C82.5318 55.1705 82.5318 55.8834 82.5318 56.6363C80.7153 56.6363 78.9389 56.6363 77.1065 56.6363C77.1065 56.388 77.1065 56.1558 77.1065 55.9235C77.1065 52.303 77.1225 48.6825 77.0905 45.0619C77.0825 44.285 76.9864 43.484 76.7704 42.7391C76.2503 40.9528 75.01 39.9516 73.1535 39.8074C72.4333 39.7513 71.6812 39.7834 70.977 39.9356C69.2086 40.3201 68.0083 41.8259 67.8002 43.8124C67.7442 44.317 67.7202 44.8297 67.7202 45.3423C67.7122 48.8747 67.7202 52.3991 67.7202 55.9315C67.7202 56.1477 67.7202 56.372 67.7202 56.6283C65.9118 56.6283 64.1353 56.6283 62.2949 56.6283C62.2949 56.396 62.2949 56.1798 62.2949 55.9715C62.2949 52.367 62.3029 48.7706 62.2869 45.1661C62.2869 44.6054 62.2469 44.0287 62.1429 43.476C61.6228 40.6805 59.5342 39.4229 56.7816 39.8395C54.285 40.2159 52.8927 41.9461 52.8846 44.5493C52.8766 48.3701 52.8846 52.1908 52.8846 56.0116C52.8846 56.2118 52.8846 56.4041 52.8846 56.6363C51.0602 56.6363 49.2838 56.6363 47.4594 56.6363C47.4754 49.6116 47.4754 42.5869 47.4754 35.5141Z" fill="white"/>
<path d="M63.9911 20.6475C61.1024 18.9414 61.0624 14.3116 64.4632 12.3893C63.535 11.364 62.8949 10.1865 62.6788 8.81681C62.0707 5.07616 63.9511 1.88819 67.528 0.61461C69.6325 -0.130317 71.777 -0.162356 73.9455 0.326251C74.3696 0.422371 74.8097 0.486451 75.2338 0.486451C77.5144 0.502471 79.7949 0.494461 82.1235 0.494461C82.1235 1.87217 82.1235 3.22586 82.1235 4.63561C81.2033 4.63561 80.275 4.63561 79.2748 4.63561C79.3388 4.89994 79.3628 5.1082 79.4428 5.30044C80.7151 8.67263 79.1708 12.5094 75.5539 14.1835C73.0253 15.3529 70.4247 15.4891 67.792 14.4638C67.616 14.3998 67.3199 14.4398 67.1679 14.56C66.3277 15.1927 66.3757 16.6265 67.3199 17.1231C67.8801 17.4195 68.5602 17.5717 69.1924 17.6037C71.1448 17.6919 73.1053 17.6118 75.0498 17.7559C76.122 17.836 77.2183 18.1084 78.2185 18.5169C80.5311 19.454 81.4593 21.3925 81.6034 23.7714C81.7954 26.9273 80.091 29.3704 76.8742 30.652C74.5537 31.5731 72.1531 31.7013 69.7125 31.509C68.2161 31.3889 66.7438 31.1406 65.3515 30.5559C63.455 29.7629 61.9987 28.5373 61.6066 26.3987C61.1905 24.1158 61.7826 22.2015 63.7831 20.8478C63.8551 20.7757 63.9191 20.7116 63.9911 20.6475ZM71.641 22.0653C71.641 22.0893 71.633 22.1214 71.633 22.1454C71.1048 22.1454 70.5687 22.1053 70.0486 22.1534C69.3684 22.2175 68.6643 22.2816 68.0161 22.4898C67.0799 22.7862 66.5678 23.4911 66.5117 24.4923C66.4557 25.4695 66.9198 26.1904 67.792 26.5188C68.6482 26.8392 69.5605 27.0875 70.4727 27.1997C72.1531 27.3999 73.8255 27.2958 75.3779 26.4868C75.938 26.1984 76.3461 25.7819 76.5061 25.1571C76.8342 23.8435 76.1461 22.642 74.7457 22.3617C73.7215 22.1534 72.6732 22.1534 71.641 22.0653ZM71.2009 4.32322C71.0888 4.32322 70.9848 4.32322 70.8728 4.32322C69.1844 4.34725 67.736 5.5888 67.6 7.12671C67.432 9.0491 68.3922 10.3868 70.2406 10.7392C70.6967 10.8273 71.1849 10.8273 71.657 10.8033C73.8895 10.6831 75.3539 8.6486 74.7217 6.59805C74.2816 5.21233 72.9053 4.32322 71.2009 4.32322Z" fill="#D5B584"/>
<path d="M91.4857 54.0091C91.4857 57.99 91.4857 61.979 91.4857 66C89.6453 66 87.8609 66 86.0444 66C86.0444 55.8434 86.0444 45.7027 86.0444 35.5301C87.8289 35.5301 89.6053 35.5301 91.4377 35.5301C91.4377 36.4192 91.4377 37.2923 91.4377 38.1974C91.5418 38.1654 91.5978 38.1734 91.6298 38.1413C96.655 32.8307 104.809 34.3046 107.41 41.105C109.122 45.5746 108.706 49.932 105.737 53.8088C103.793 56.356 101.072 57.3092 97.9113 57.165C95.4067 57.0529 93.4142 55.9555 91.7498 54.1452C91.7018 54.0892 91.6458 54.0411 91.5978 53.9931C91.5898 53.9851 91.5658 53.9931 91.4857 54.0091ZM91.4457 46.2955C91.4777 46.5758 91.5097 47.0885 91.6058 47.5931C91.6778 47.9856 91.7978 48.3701 91.9419 48.7465C93.5182 52.7836 98.5434 53.6887 101.256 50.4046C102.632 48.7385 102.968 46.7921 102.688 44.6855C102.128 40.5283 97.4472 38.3816 93.9983 40.7606C92.1579 42.0262 91.4697 43.9005 91.4457 46.2955Z" fill="white"/>
<path d="M122.302 52.1027C122.302 53.6246 122.302 55.1145 122.302 56.6764C120.173 56.5803 118.053 56.9167 115.98 56.2599C113.668 55.531 112.291 53.7127 112.107 51.1495C112.067 50.6209 112.051 50.0922 112.051 49.5636C112.051 38.5018 112.051 27.44 112.051 16.3703C112.051 16.138 112.051 15.9057 112.051 15.6253C111.139 15.6253 110.283 15.6253 109.386 15.6253C109.386 14.0794 109.386 12.5816 109.386 11.0116C110.251 11.0116 111.123 11.0116 112.051 11.0116C112.051 10.7152 112.051 10.483 112.051 10.2507C112.067 8.44041 112.003 6.62215 112.123 4.81991C112.299 2.17662 114.916 -0.0821901 117.532 0.0780092C117.532 3.6905 117.532 7.31902 117.532 10.9956C119.157 10.9956 120.701 10.9956 122.294 10.9956C122.294 12.5495 122.294 14.0554 122.294 15.6173C120.717 15.6173 119.157 15.6173 117.54 15.6173C117.54 15.8977 117.54 16.1059 117.54 16.3222C117.54 27.4561 117.54 38.5979 117.54 49.7318C117.54 49.8439 117.54 49.948 117.54 50.0602C117.572 51.3818 118.157 51.9906 119.493 52.0467C120.277 52.0787 121.061 52.0547 121.845 52.0627C121.99 52.0707 122.134 52.0867 122.302 52.1027Z" fill="#D5B584"/>
<path d="M104.249 15.0887C104.161 15.345 104.097 15.5532 104.017 15.7535C102.368 19.9026 98.6315 22.3136 94.0304 22.2095C87.6129 22.0653 83.3398 17.4676 83.4519 10.8754C83.4999 8.22412 84.148 5.77307 85.8684 3.69849C87.9569 1.19137 90.7096 0.0859934 93.9184 0.0219137C97.6473 -0.0581859 100.752 1.2154 102.953 4.33127C104.345 6.29371 104.849 8.5365 104.777 10.9155C104.761 11.5162 104.697 12.1089 104.657 12.7497C99.4077 12.7497 94.2224 12.7497 89.0452 12.7497C89.0212 14.6401 90.2935 17.1873 93.1342 17.6038C94.9986 17.8761 96.735 17.5717 97.8553 15.9057C98.3354 15.1928 98.8155 15.0406 99.5757 15.0726C101.104 15.1207 102.64 15.0887 104.249 15.0887ZM99.1276 9.02511C99.1516 6.22163 96.511 4.37933 93.7503 4.5155C91.3177 4.63565 89.0612 6.70222 89.0852 9.02511C92.43 9.02511 95.7588 9.02511 99.1276 9.02511Z" fill="#D5B584"/>
<path d="M28.8309 47.7133C28.8549 49.9961 30.3753 52.2549 32.9999 52.5913C35.1364 52.8637 36.9529 52.327 38.0732 50.2925C38.1292 50.1884 38.2812 50.0842 38.3932 50.0842C40.2577 50.0682 42.1141 50.0762 44.0426 50.0762C43.3784 52.0627 42.2982 53.6967 40.7138 54.9783C38.6893 56.6204 36.3287 57.2291 33.7681 57.181C29.031 57.0849 25.3821 54.5378 23.9178 50.2684C22.9575 47.465 22.9815 44.6214 23.9097 41.8179C24.5179 39.9676 25.6062 38.4297 27.1425 37.2202C29.5351 35.3459 32.2798 34.7932 35.2405 35.0495C38.3612 35.3219 40.8898 36.6836 42.7143 39.2547C44.0906 41.1852 44.6107 43.3799 44.5787 45.7268C44.5707 46.2555 44.4907 46.7841 44.4747 47.3048C44.4667 47.6172 44.3306 47.7293 44.0346 47.7133C43.8505 47.7053 43.6665 47.7133 43.4904 47.7133C38.8333 47.7133 34.1762 47.7133 29.5191 47.7133C29.303 47.7133 29.087 47.7133 28.8309 47.7133ZM38.8733 44.0287C39.0734 41.6658 36.9129 39.6312 34.1042 39.5031C31.2795 39.3749 28.8869 41.4335 28.8789 44.0287C32.2077 44.0287 35.5445 44.0287 38.8733 44.0287Z" fill="white"/>
<path d="M124.91 53.6246C124.91 51.6301 126.43 50.0842 128.375 50.0842C130.455 50.0842 132.024 51.6301 132 53.6486C131.976 55.6271 130.399 57.197 128.431 57.189C126.462 57.181 124.91 55.6031 124.91 53.6246Z" fill="white"/>
<path d="M0 46.8321C0 50.1002 0 53.3602 0 56.6283H5.44131C5.44131 56.388 5.44131 56.1878 5.44131 55.9875C5.44131 52.6634 5.44131 49.3312 5.44931 46.0071C5.44931 45.8149 5.45731 45.5746 5.56133 45.4464C6.46555 44.3971 7.39377 43.3638 8.338 42.2985C8.46603 42.4987 8.57006 42.6429 8.65808 42.7951C11.3627 47.2807 14.0674 51.7583 16.756 56.2518C16.9321 56.5482 17.1161 56.6844 17.4842 56.6764C19.3086 56.6523 21.1331 56.6684 22.9655 56.6684C23.1175 56.6684 23.2616 56.6443 23.4616 56.6283C23.3576 56.4521 23.2936 56.3399 23.2216 56.2358C19.8128 50.765 15.2357 44.341 11.6828 38.7661C12.7151 37.7969 13.7473 36.8197 14.7715 35.8505C16.2039 34.4968 17.6442 33.1511 19.0766 31.8054C20.5729 30.3957 22.0613 28.9859 23.5577 27.5762C25.126 26.0943 26.7024 24.6205 28.2708 23.1386C28.4628 22.9544 28.5589 22.7382 28.5188 22.4578C28.4868 22.3697 28.4628 22.2656 28.4148 22.1855C28.1748 21.793 27.6786 21.7129 27.3026 22.0012C26.6464 22.4979 25.9902 23.0025 25.3421 23.5071C23.8857 24.6285 22.4294 25.7579 20.973 26.8793C19.2126 28.241 17.4442 29.5947 15.6838 30.9564C14.2354 32.0698 12.7871 33.1912 11.3387 34.3045C9.36225 35.8264 7.39377 37.3403 5.4173 38.8622V26.8473H0C0 31.5491 0 36.251 0 40.9448V46.8321ZM5.4253 42.6189C5.4253 42.0422 5.4253 41.4014 5.4253 40.7365C5.64936 40.5683 5.86541 40.3921 6.08946 40.2239C7.78587 38.9183 9.48228 37.6127 11.1787 36.307C12.323 35.4259 13.4672 34.5448 14.6035 33.6637C15.0516 33.3193 15.5077 32.9749 15.9558 32.6224C15.9638 32.6305 15.9798 32.6465 15.9878 32.6545C12.467 35.9786 8.95415 39.2947 5.4253 42.6189Z" fill="white"/>
</svg>
